<?xml version="1.0" encoding="UTF-8"?>
<svg width="358px" height="127px" viewBox="0 0 358 127" version="1.1" xmlns="http://www.w3.org/2000/svg" xmlns:xlink="http://www.w3.org/1999/xlink">
    <!-- Generator: Sketch 55 (78076) - https://sketchapp.com -->
    <title>PVD Logo 360x130 (white)</title>
    <desc>Created with Sketch.</desc>
    <g id="PVD-Logo-360x130-(white)" stroke="none" stroke-width="1" fill="none" fill-rule="evenodd">
        <g id="Captura-de-Pantalla-2024-02-26-a-las-0.31.29" transform="translate(131.000000, 26.000000)" fill="#FFFFFF" fill-rule="nonzero">
            <path d="M141.51279,0.0485348914 C141.972433,0.0481276012 142.432077,0.0470474059 142.891717,0.0453468901 C144.138094,0.0427085284 145.384247,0.0496651757 146.630588,0.0584831598 C147.939075,0.0662434265 149.247561,0.0656172164 150.556068,0.0660296321 C152.756084,0.067929397 154.956016,0.075624466 157.156,0.0872306204 C159.968188,0.102037538 162.780307,0.107411254 165.592529,0.109709558 C168.021173,0.111769627 170.449802,0.118204609 172.878436,0.125326147 C173.653148,0.127421726 174.427859,0.128934322 175.202572,0.130366781 C176.428047,0.132914753 177.653483,0.13821443 178.878939,0.145515673 C179.325189,0.147812619 179.771445,0.14929659 180.217702,0.149842244 C182.432236,0.15315312 184.616026,0.217359251 186.81764,0.467686288 C186.999376,0.488282492 187.181113,0.508878698 187.368356,0.53009903 C188.722848,0.700528411 189.865567,1.01804258 191.052122,1.67928352 C191.223956,1.77020467 191.395789,1.86112582 191.57283,1.95480215 C194.24596,3.4370537 195.656565,5.82129915 196.513804,8.6867285 C197.138751,11.2621339 196.985988,13.9391954 196.977658,16.5706066 C196.978184,17.1587485 196.978943,17.7468902 196.979921,18.3350314 C196.981067,19.5634277 196.979413,20.7917804 196.975752,22.0201716 C196.971305,23.5877503 196.973868,25.1552271 196.978541,26.7228021 C196.981373,27.9360194 196.980458,29.1492128 196.978441,30.3624308 C196.977923,30.9401448 196.978547,31.517861 196.980376,32.0955723 C196.994687,37.8856347 196.994687,37.8856347 196.093401,40.3709935 C196.01811,40.5814844 195.942819,40.7919754 195.865246,41.0088448 C194.874468,43.6025542 193.187249,45.3496495 190.666213,46.5118049 C187.185967,48.0224782 183.470285,47.8731267 179.737386,47.8823624 C179.272945,47.8843993 178.808506,47.8865271 178.344066,47.8887384 C176.82971,47.8954305 175.315353,47.899414 173.800987,47.9030922 C173.277877,47.9044728 172.754767,47.9058564 172.231657,47.9072431 C170.056863,47.9127966 167.882069,47.9176184 165.707269,47.9205256 C162.59663,47.9247129 159.486075,47.9332842 156.375468,47.9479027 C154.183579,47.9578521 151.991711,47.9628847 149.799799,47.9642465 C148.492078,47.9651864 147.184448,47.9682795 145.876752,47.9766234 C144.648473,47.9843504 143.42034,47.9859918 142.192041,47.9829572 C141.741641,47.9829003 141.291235,47.9850437 140.840858,47.9895579 C140.225531,47.9953899 139.610731,47.993266 138.995402,47.9891761 C138.817644,47.992748 138.639886,47.9963199 138.456741,48 C137.027988,47.97663 136.439654,47.5059372 135.467956,46.546229 C135.069084,45.7573566 135.176195,44.9326609 135.182351,44.0676921 C135.182719,43.8742437 135.183087,43.6807952 135.183467,43.4814847 C135.184925,42.8627589 135.188191,42.2440568 135.191499,41.6253382 C135.192803,41.2062185 135.193991,40.7870985 135.195056,40.3679782 C135.197927,39.3397682 135.20242,38.311576 135.207761,37.2833757 C135.457564,37.282524 135.707367,37.2816723 135.96474,37.2807948 C142.038468,37.2599698 148.11218,37.2362215 154.185885,37.2093946 C157.123063,37.1964893 160.060239,37.1845395 162.99743,37.1748267 C165.557002,37.1663601 168.116558,37.1561136 170.676114,37.143715 C172.031813,37.1372106 173.387501,37.1316073 174.743212,37.1281344 C176.018624,37.1248392 177.294002,37.1191683 178.569395,37.111657 C179.038044,37.1093191 179.506698,37.1078571 179.975353,37.1073265 C180.614236,37.1064736 181.253024,37.1024965 181.891888,37.0977257 C182.17132,37.0984725 182.17132,37.0984725 182.456397,37.0992343 C183.389556,37.0887862 184.1378,37.0702375 184.905014,36.5114713 C185.244992,35.5028796 185.203576,34.5425329 185.203006,33.4911942 C185.20388,33.2614374 185.204754,33.0316806 185.205654,32.7949615 C185.208129,32.0343476 185.208634,31.2737482 185.208914,30.5131305 C185.20975,29.9853567 185.210625,29.457583 185.211538,28.9298093 C185.213097,27.8232315 185.213578,26.7166588 185.213424,25.61008 C185.213398,24.1901956 185.216953,22.7703442 185.221431,21.3504677 C185.224319,20.2605089 185.224852,19.1705582 185.224714,18.080596 C185.225022,17.5569828 185.226176,17.0333694 185.228183,16.5097598 C185.230724,15.7785506 185.229988,15.0474138 185.228416,14.3162034 C185.229878,14.0988431 185.23134,13.8814828 185.232847,13.6575358 C185.227331,12.6512808 185.222243,12.1524303 184.644819,11.2959263 C183.721418,10.9915488 182.884181,10.999208 181.923177,10.997915 C181.723819,10.9966445 181.524461,10.9953739 181.319061,10.9940649 C180.649077,10.9901039 179.979099,10.9879563 179.309106,10.9857951 C178.829622,10.9833309 178.350139,10.9807554 177.870656,10.9780764 C176.567084,10.9711101 175.26351,10.9657079 173.95993,10.9605794 C172.598308,10.9549589 171.236694,10.9479097 169.875078,10.94101 C167.295813,10.9281582 164.716544,10.9165974 162.137271,10.9054966 C159.201221,10.8927978 156.265179,10.8786655 153.329137,10.8644108 C147.288685,10.8351163 141.248226,10.8076283 135.207761,10.7813234 C135.16257,9.52710964 135.12961,8.27336365 135.10771,7.01854049 C135.098578,6.59221901 135.086168,6.16595291 135.070358,5.73982249 C134.925923,1.7454295 134.925923,1.7454295 135.845329,0.727877384 C137.468308,-0.236630331 139.684483,0.0277409231 141.51279,0.0485348914 Z" id="Path"></path>
            <path d="M3.64326775,0.0607142088 C3.8171624,0.0599464267 3.99105706,0.0591786446 4.17022125,0.0583875948 C4.75582053,0.0561379937 5.34140601,0.0557525677 5.92700933,0.0553673639 C6.34588869,0.0541715793 6.76476776,0.0528731601 7.1836465,0.0514794683 C8.32469054,0.0480824399 9.46573059,0.046421056 10.606779,0.0452747527 C11.3208646,0.0445173098 12.0349492,0.043456467 12.7490343,0.0423018996 C14.9864458,0.0387644278 17.2238548,0.0362691412 19.4612689,0.0352725222 C22.0373622,0.0341186448 24.6134192,0.0296041238 27.1895015,0.0220932029 C29.1837203,0.0164826067 31.1779289,0.013899136 33.1721556,0.0135550331 C34.3613639,0.0132856251 35.5505382,0.0117900067 36.739738,0.00714127266 C37.8618878,0.0028407322 38.9839787,0.00234530664 40.1061339,0.00459304456 C40.5147572,0.00479001109 40.9233839,0.00369830317 41.3319989,0.00111523039 C45.7877024,-0.0253641631 50.2561287,0.399491986 53.7503724,3.45640199 C56.4897295,6.77094063 56.9562947,9.96634178 56.9602891,14.1362109 C56.9619647,14.54877 56.9637157,14.9613287 56.9655381,15.3738871 C56.9686435,16.2366289 56.9696194,17.0993441 56.96931,17.962091 C56.9692572,19.0596999 56.9763555,20.1571352 56.9853244,21.2547032 C56.9911529,22.1065182 56.9921651,22.9582924 56.9918911,23.8101251 C56.9924992,24.2143581 56.9947672,24.6185926 56.9988294,25.0228059 C57.0330794,28.7831277 56.3240095,32.111819 53.7778163,35.0314893 C50.6729555,38.0520215 46.8918357,38.3837981 42.7672327,38.3717686 C42.4268417,38.3718064 42.0864507,38.3718441 41.7357449,38.371883 C40.8079602,38.3719568 39.8801844,38.3704435 38.9524018,38.3686337 C37.9807195,38.367012 37.0090369,38.366866 36.0373534,38.3665598 C34.1998424,38.3657585 32.3623355,38.3636403 30.5248263,38.3610428 C28.4318227,38.3581486 26.3388189,38.3567321 24.2458138,38.3554364 C19.942665,38.3527394 15.6395203,38.3481977 11.3363746,38.342432 C11.3404626,38.5705104 11.3445506,38.7985888 11.3487625,39.0335786 C11.362104,39.8836215 11.3718721,40.733554 11.3792557,41.5836606 C11.3831699,41.9508598 11.3884884,42.3180471 11.3952646,42.6852052 C11.4047844,43.2144518 11.4091734,43.7435392 11.4126076,44.2728552 C11.4166956,44.5908741 11.4207836,44.9088931 11.4249955,45.236549 C11.3284906,46.1712436 11.1312043,46.6484816 10.5557489,47.3869583 C8.93241813,48.1337664 7.21817517,47.9891602 5.46541863,47.984543 C4.98970196,47.9907889 4.98970196,47.9907889 4.50437485,47.997161 C4.19863486,47.9973275 3.89289487,47.9974941 3.57789002,47.9976657 C3.16151215,47.9988212 3.16151215,47.9988212 2.7367226,48 C1.85579054,47.8896201 1.37680414,47.6521793 0.667823028,47.1285432 C0.0289654052,46.176862 0.0842800446,45.7159604 0.0883253173,44.5810479 C0.0882493208,44.4019814 0.0881733269,44.2229149 0.0880950301,44.0384221 C0.088457394,43.4469424 0.0925056227,42.855547 0.09658389,42.264082 C0.0975545694,41.8538358 0.0982953442,41.4435889 0.098815293,41.0333418 C0.100801845,39.9538369 0.105914124,38.874368 0.111671668,37.7948773 C0.116996178,36.6932325 0.119372439,35.5915819 0.121994884,34.4899281 C0.127575473,32.3285457 0.136457341,30.1671926 0.147405877,28.0058305 C0.483550364,28.0056193 0.483550364,28.0056193 0.826485649,28.0054039 C6.27741809,28.0015374 11.7282951,27.990574 17.1791966,27.9716963 C19.8152095,27.9627386 22.451187,27.9561895 25.0872162,27.9552957 C27.3845889,27.9545107 29.6818985,27.9492215 31.9792468,27.938507 C33.1958701,27.9329906 34.4124037,27.9297411 35.6290399,27.9318841 C36.7740801,27.9338298 37.9189383,27.9297555 39.0639452,27.9210548 C39.4842532,27.9189237 39.9045794,27.918996 40.3248858,27.9214329 C40.8989383,27.9244318 41.4723923,27.9195038 42.0463982,27.9126038 C42.5281539,27.9115319 42.5281539,27.9115319 43.019642,27.9104383 C44.0978346,27.7018846 44.4863624,27.2963831 45.1634894,26.4553403 C45.3524396,25.7513007 45.3524396,25.7513007 45.3194494,24.9925446 C45.3210309,24.7054193 45.3226123,24.418294 45.3242417,24.1224679 C45.3191593,23.8150279 45.3140768,23.5075879 45.3088403,23.1908316 C45.3082336,22.8732941 45.307627,22.5557566 45.307002,22.2285967 C45.3044692,21.5582698 45.2988024,20.8879483 45.2902267,20.2176707 C45.2773559,19.189438 45.274228,18.1615247 45.2727567,17.1332197 C45.269092,16.4821315 45.2648757,15.8310461 45.2600512,15.1799654 C45.2586558,14.8714792 45.2572603,14.5629931 45.2558226,14.2451588 C45.2516626,13.9596626 45.2475025,13.6741665 45.2432164,13.3800189 C45.2404478,13.1285575 45.2376793,12.8770961 45.2348268,12.6180147 C45.205502,11.9182266 45.205502,11.9182266 44.6430723,11.2088531 C43.748062,10.9125727 43.0534036,10.9144479 42.1089808,10.909552 C41.9298011,10.908276 41.7506215,10.907 41.5660121,10.9056852 C40.9643159,10.9017096 40.3626269,10.8995509 39.7609216,10.8973797 C39.3301212,10.8949047 38.8993215,10.8923179 38.4685224,10.8896276 C37.2976714,10.8826333 36.1268178,10.8772065 34.9559573,10.8720548 C33.7328296,10.8664087 32.5097103,10.8593297 31.2865894,10.8524007 C28.9698337,10.8394951 26.6530733,10.8278836 24.3363084,10.8167337 C21.6990093,10.8039783 19.0617186,10.7897855 16.4244277,10.7754701 C10.9987617,10.7460515 5.57308752,10.718444 0.147405877,10.692023 C0.115167388,9.42762625 0.0915976197,8.16346696 0.0759374584,6.8987603 C0.0694074539,6.46886795 0.0605383774,6.03900394 0.0492559131,5.6092087 C0.0334151098,4.99012326 0.0260816281,4.37141539 0.0203509089,3.75216607 C0.0136358545,3.56099687 0.00692080275,3.36982767 2.26265752e-06,3.17286546 C-0.00056115396,2.13523432 0.103685609,1.70068083 0.77334218,0.886068241 C1.80676853,0.0737753342 2.33244805,0.063937112 3.64326775,0.0607142088 Z" id="Path"></path>
            <path d="M67.2857366,0.102687601 C67.8507629,0.102125832 68.4156555,0.0974487491 68.9806583,0.0925510569 C69.3414353,0.0917939849 69.7022129,0.0912824441 70.0629906,0.0910400179 C70.3905987,0.0899804045 70.7182067,0.0889207885 71.0557423,0.0878290634 C72.1583227,0.166375972 72.8812516,0.350588787 73.709069,1.08857671 C74.7641129,2.32715626 75.6691868,3.60140697 76.5183842,4.98579467 C76.7892763,5.41915926 77.0605058,5.85231664 77.3320381,6.28528706 C77.470523,6.5067674 77.609008,6.72824775 77.7516894,6.95643962 C78.4480903,8.06001919 79.1650715,9.15010123 79.8827058,10.2401763 C80.0249409,10.4566079 80.1671761,10.6730395 80.3137214,10.8960296 C80.5950833,11.3241441 80.8765212,11.7522095 81.1580396,12.1802227 C82.9306266,14.876915 84.6850653,17.5849104 86.4325685,20.2976429 C88.1178471,22.9129524 89.8197126,25.516988 91.533904,28.1137371 C92.1792298,29.0919687 92.8193322,30.0733122 93.455793,31.0572384 C93.6114366,31.2971478 93.7670803,31.5370571 93.9274405,31.7842364 C94.2226428,32.2396387 94.5168906,32.6956514 94.8100416,33.1523551 C94.9407119,33.3535365 95.0713822,33.554718 95.2060122,33.7619958 C95.3200894,33.9389723 95.4341667,34.1159488 95.5517008,34.2982883 C95.8404909,34.7459224 95.8404909,34.7459224 96.3792584,34.9647818 C96.4480818,34.7794115 96.5169053,34.5940412 96.5878143,34.4030536 C96.9063967,33.6588955 97.2814795,33.0265952 97.7231586,32.3476646 C97.8891939,32.0913624 98.0552291,31.8350602 98.2262958,31.5709912 C98.4051949,31.2974027 98.584094,31.0238143 98.7684143,30.7419352 C98.9535148,30.4570442 99.1386154,30.1721532 99.329325,29.878629 C100.896511,27.4678962 102.476971,25.0656471 104.059704,22.6649353 C105.206782,20.9247148 106.345156,19.178955 107.482688,17.4325896 C108.422607,15.9896711 109.363559,14.5474164 110.305208,13.1056074 C110.560075,12.7151881 110.814782,12.3246657 111.069342,11.9340495 C112.062548,10.4102169 113.061021,8.88987 114.062263,7.37121945 C114.240177,7.10062283 114.418091,6.83002621 114.601397,6.55122968 C115.161874,5.70035648 115.725055,4.85129955 116.288891,4.00261284 C116.465443,3.73399001 116.641996,3.46536717 116.823899,3.18860426 C116.99094,2.93830654 117.157981,2.68800881 117.330083,2.43012631 C117.551104,2.09650337 117.551104,2.09650337 117.77659,1.75614056 C118.436655,0.907167583 119.019692,0.488835244 120.043279,0.150474166 C121.218638,0.079842932 122.394502,0.0696778659 123.571715,0.0601896674 C123.959368,0.0559233106 124.347,0.0488908231 124.734549,0.0390351401 C125.296287,0.0248414604 125.857544,0.0192606959 126.41944,0.015488135 C126.754926,0.0103770517 127.090411,0.00526596575 127.436063,0 C128.665012,0.199137641 129.071444,0.551987785 129.924957,1.43989297 C130.437011,4.20970651 128.213926,6.46531808 126.736369,8.63847637 C126.01504,9.70162729 125.310771,10.7751981 124.610305,11.8519498 C124.431426,12.1267953 124.431426,12.1267953 124.248935,12.4071932 C124.00697,12.7791733 123.765083,13.1512034 123.523274,13.5232834 C122.9385,14.422757 122.352327,15.3213319 121.766071,16.219856 C121.649061,16.3992218 121.532051,16.5785877 121.411495,16.7633888 C120.062043,18.8311933 118.707834,20.8959296 117.353701,22.9607209 C116.646428,24.0392677 115.939455,25.1180071 115.232461,26.196734 C114.381375,27.4953172 113.53022,28.7938558 112.678746,30.092189 C111.486097,31.9109446 110.293485,33.7297047 109.106059,35.5518199 C107.835404,37.501583 106.561872,39.4494961 105.285772,41.3957581 C105.126084,41.6400305 104.966397,41.884303 104.801871,42.1359776 C104.338111,42.842454 103.869892,43.5458238 103.400451,44.2485972 C103.246086,44.4846628 103.09172,44.7207284 102.932676,44.9639476 C102.779987,45.1909546 102.627297,45.4179615 102.469981,45.6518475 C102.336147,45.853486 102.202313,46.0551245 102.064423,46.2628733 C101.217791,47.2498536 100.429569,47.7976913 99.1274987,47.9924448 C98.8078729,47.9936083 98.4882471,47.9947718 98.1589357,47.9959706 C97.9859133,47.9969575 97.812891,47.9979444 97.6346255,47.9989612 C97.2709765,47.9996591 96.907314,47.9977837 96.5436906,47.9934522 C95.9904988,47.9879248 95.438185,47.9934106 94.8850201,48 C94.5298277,47.9993183 94.1746358,47.9979965 93.8194485,47.9959706 C93.3400098,47.9942253 93.3400098,47.9942253 92.8508855,47.9924448 C91.4311205,47.7800874 90.643967,47.1413117 89.7775899,46.0346437 C89.5750023,45.7260546 89.37572,45.4153139 89.1792852,45.1028371 C89.0691048,44.933361 88.9589244,44.7638849 88.8454052,44.5892732 C88.6117978,44.2294072 88.379522,43.868688 88.1485046,43.5071814 C87.806703,42.9730893 87.4608209,42.441877 87.1131529,41.9115256 C86.6387598,41.1877667 86.1657501,40.4631557 85.6940837,39.7376461 C84.8921492,38.504771 84.0861195,37.2745554 83.2795329,36.0446701 C83.1381357,35.829028 82.9967386,35.6133859 82.8510567,35.3912092 C82.5632826,34.9523487 82.2754944,34.5134972 81.9876923,34.0746547 C81.2804199,32.9961078 80.57345,31.917366 79.866453,30.8386416 C79.58474,30.4088344 79.3030254,29.9790281 79.0213094,29.5492228 C74.7955915,23.1021288 74.7955915,23.1021288 70.5698736,16.6550348 C70.4303621,16.4421976 70.2908505,16.2293604 70.1471114,16.0100736 C69.8659841,15.5811375 69.5849043,15.1521708 69.3038724,14.7231732 C68.5909913,13.6350857 67.8772412,12.5475758 67.1618727,11.4610947 C66.4562511,10.3892726 65.754684,9.31491132 65.0543467,8.23968835 C64.6615501,7.64081482 64.2630596,7.04600335 63.863578,6.4515012 C63.6230192,6.08660103 63.3826057,5.72160664 63.1423617,5.35650258 C63.0313433,5.19469311 62.9203249,5.03288364 62.8059423,4.86617086 C62.096957,3.77486104 61.8882794,2.98770259 62.0534267,1.69777673 C63.5862072,-0.14227928 65.0528176,0.102438431 67.2857366,0.102687601 Z" id="Path"></path>
        </g>
        <g id="Group" transform="translate(25.000000, 25.000000)">
            <path d="M0.925332152,28.7504037 L82.9253322,12.885031 L35.7780543,78 L35.7780543,78 C43.430599,60.2187431 35.2196555,39.6005731 17.4383985,31.9480283 C13.9608633,30.4513966 10.2638251,29.5280491 6.49096807,29.2138716 L0.925332152,28.7504037 Z" id="Line-7" fill="#FFFFFF"></path>
            <path d="M5.92533215,9.85646227 C27.0000081,11.1337438 41.6666748,16.3094993 49.9253322,25.3837289 C58.1839895,34.4579585 62.335181,49.9583926 62.3789065,71.885031 L93.9253322,0.885031001 L5.92533215,9.85646227 Z" id="Line-6" fill="#76CDE3"></path>
        </g>
        <path d="M135.052751,98.083 C134.793917,98.083 134.49942,98.0577919 134.169251,98.007375 C133.839083,97.9569581 133.522503,97.8475425 133.219501,97.679125 C132.9165,97.5107075 132.665919,97.2515018 132.467751,96.9015 C132.269584,96.5514983 132.170501,96.074503 132.170501,95.4705 L132.170501,88.871 C132.170501,88.3438307 132.251834,87.9040018 132.414501,87.5515 C132.577169,87.1989982 132.789583,86.9212927 133.051751,86.718375 C133.313919,86.5154573 133.605958,86.3715421 133.927876,86.286625 C134.249795,86.2017079 134.566083,86.15925 134.876751,86.15925 C135.675255,86.1620833 136.381415,86.1747082 136.995251,86.197125 C137.609088,86.2195418 138.160499,86.2438749 138.649501,86.270125 C139.138504,86.2963751 139.585833,86.3264998 139.991501,86.3605 L139.991501,88.34825 L135.578751,88.34825 C135.251916,88.34825 134.997669,88.4277075 134.816001,88.586625 C134.634334,88.7455425 134.543501,88.9924983 134.543501,89.3275 L134.543501,91.03325 L139.234501,91.163 L139.234501,93.03375 L134.543501,93.1635 L134.543501,94.8035 C134.543501,95.078668 134.588584,95.2926242 134.678751,95.445375 C134.768919,95.5981258 134.890251,95.7052497 135.042751,95.76675 C135.195252,95.8282503 135.357001,95.859 135.528001,95.859 L139.991501,95.859 L139.991501,97.84675 C139.521332,97.8964169 139.002963,97.9382915 138.436376,97.972375 C137.86979,98.0064585 137.296088,98.0327082 136.715251,98.051125 C136.134415,98.0695418 135.580254,98.0801667 135.052751,98.083 Z M153.213006,98 L153.213006,86.15925 L155.109256,86.15925 L160.068006,93.9615 L160.068006,86.15925 L162.441006,86.15925 L162.441006,98 L160.544506,98 L155.586006,90.19775 L155.586006,98 L153.213006,98 Z M179.153067,98.08 C178.41123,98.0828333 177.803319,97.9419598 177.329317,97.657375 C176.855315,97.3727902 176.485318,96.967336 176.219317,96.441 C175.953316,95.914664 175.766776,95.2823787 175.659692,94.544125 C175.552608,93.8058713 175.499067,92.9845045 175.499067,92.08 C175.499067,91.1311619 175.5604,90.2834204 175.683067,89.53675 C175.805734,88.7900796 176.023982,88.1579609 176.337817,87.640375 C176.651652,87.1227891 177.094647,86.7285847 177.666817,86.45775 C178.238986,86.1869153 178.973146,86.0515 179.869317,86.0515 C180.412653,86.0515 180.909565,86.0726665 181.360067,86.115 C181.810569,86.1573335 182.239565,86.2180829 182.647067,86.29725 C183.054569,86.3764171 183.460232,86.4674995 183.864067,86.5705 L183.864067,88.406 C183.637899,88.3691665 183.338485,88.3340002 182.965817,88.3005 C182.593148,88.2669998 182.178528,88.2388751 181.721942,88.216125 C181.265356,88.1933749 180.792153,88.182 180.302317,88.182 C179.623313,88.182 179.110152,88.3018321 178.762817,88.5415 C178.415482,88.7811679 178.180193,89.1861638 178.056942,89.7565 C177.933691,90.3268362 177.872067,91.1041617 177.872067,92.0885 C177.872067,92.8588372 177.9059,93.4909142 177.973567,93.98475 C178.041234,94.4785858 178.154316,94.8654153 178.312817,95.14525 C178.471318,95.4250847 178.681691,95.6212911 178.943942,95.733875 C179.206193,95.8464589 179.529398,95.90275 179.913567,95.90275 C180.354069,95.90275 180.77269,95.8654587 181.169442,95.790875 C181.566194,95.7162913 181.887566,95.6400837 182.133567,95.56225 L182.133567,93.2565 L180.008317,93.2565 L180.008317,91.3945 C180.231485,91.3624998 180.497857,91.3358334 180.807442,91.3145 C181.117027,91.2931666 181.440857,91.2745001 181.778942,91.2585 C182.117027,91.2424999 182.438649,91.2345 182.743817,91.2345 C183.087652,91.2345 183.396191,91.237875 183.669442,91.244625 C183.942693,91.251375 184.190566,91.2629999 184.413067,91.2795 L184.413067,98 L182.636067,98 L182.306067,97.19875 C182.001232,97.3780842 181.56682,97.5690823 181.002817,97.77175 C180.438814,97.9744177 179.822237,98.0771667 179.153067,98.08 Z M197.856923,98 L197.856923,86.15925 L200.229923,86.15925 L200.229923,98 L197.856923,98 Z M213.759744,98 L213.759744,86.15925 L215.655994,86.15925 L220.614744,93.9615 L220.614744,86.15925 L222.987744,86.15925 L222.987744,98 L221.091244,98 L216.132744,90.19775 L216.132744,98 L213.759744,98 Z M239.157554,98 L239.157554,94.41325 L235.597054,86.15925 L238.060554,86.15925 L240.390804,91.99775 L242.721054,86.15925 L245.090804,86.15925 L241.530554,94.41325 L241.530554,98 L239.157554,98 Z M260.188609,98.083 C259.929774,98.083 259.635277,98.0577919 259.305109,98.007375 C258.974941,97.9569581 258.65836,97.8475425 258.355359,97.679125 C258.052357,97.5107075 257.801777,97.2515018 257.603609,96.9015 C257.405441,96.5514983 257.306359,96.074503 257.306359,95.4705 L257.306359,88.871 C257.306359,88.3438307 257.387691,87.9040018 257.550359,87.5515 C257.713026,87.1989982 257.925441,86.9212927 258.187609,86.718375 C258.449777,86.5154573 258.741816,86.3715421 259.063734,86.286625 C259.385652,86.2017079 259.701941,86.15925 260.012609,86.15925 C260.811113,86.1620833 261.517272,86.1747082 262.131109,86.197125 C262.744945,86.2195418 263.296356,86.2438749 263.785359,86.270125 C264.274361,86.2963751 264.72169,86.3264998 265.127359,86.3605 L265.127359,88.34825 L260.714609,88.34825 C260.387774,88.34825 260.133526,88.4277075 259.951859,88.586625 C259.770191,88.7455425 259.679359,88.9924983 259.679359,89.3275 L259.679359,91.03325 L264.370359,91.163 L264.370359,93.03375 L259.679359,93.1635 L259.679359,94.8035 C259.679359,95.078668 259.724442,95.2926242 259.814609,95.445375 C259.904776,95.5981258 260.026108,95.7052497 260.178609,95.76675 C260.33111,95.8282503 260.492858,95.859 260.663859,95.859 L265.127359,95.859 L265.127359,97.84675 C264.65719,97.8964169 264.13882,97.9382915 263.572234,97.972375 C263.005648,98.0064585 262.431945,98.0327082 261.851109,98.051125 C261.270273,98.0695418 260.716112,98.0801667 260.188609,98.083 Z M278.262864,98 L278.262864,86.15925 L283.158364,86.15925 C283.626699,86.15925 284.064445,86.2153744 284.471614,86.327625 C284.878782,86.4398756 285.237362,86.6358319 285.547364,86.9155 C285.857365,87.1951681 286.099655,87.5794976 286.274239,88.0685 C286.448823,88.5575024 286.536114,89.1827462 286.536114,89.94425 C286.536114,90.4950861 286.482698,90.9618731 286.375864,91.344625 C286.26903,91.7273769 286.127823,92.0412071 285.952239,92.286125 C285.776655,92.5310429 285.577323,92.7273743 285.354239,92.875125 C285.131154,93.0228757 284.903282,93.1449995 284.670614,93.2415 L286.872364,98 L284.464114,98 L282.550864,93.616 C282.423196,93.616 282.277906,93.6145417 282.114989,93.611625 C281.952071,93.6087083 281.784615,93.6065417 281.612614,93.605125 C281.440613,93.6037083 281.269573,93.6015833 281.099489,93.59875 C280.929405,93.5959167 280.774864,93.593 280.635864,93.59 L280.635864,98 L278.262864,98 Z M280.635864,91.7195 L282.748864,91.7195 C282.959698,91.7195 283.150613,91.6926253 283.321614,91.638875 C283.492615,91.5851247 283.642071,91.4912923 283.769989,91.357375 C283.897906,91.2234577 283.995405,91.0430428 284.062489,90.816125 C284.129572,90.5892072 284.163114,90.3025017 284.163114,89.956 C284.163114,89.618165 284.128864,89.3405844 284.060364,89.12325 C283.991863,88.9059156 283.893656,88.7375839 283.765739,88.61825 C283.637821,88.4989161 283.488365,88.4143336 283.317364,88.3645 C283.146363,88.3146664 282.956865,88.28975 282.748864,88.28975 L280.635864,88.28975 L280.635864,91.7195 Z M299.696473,98 L299.696473,86.15925 L302.069473,86.15925 L302.069473,98 L299.696473,98 Z M314.756293,98 L318.482543,86.15925 L321.460293,86.15925 L325.186543,98 L322.723043,98 L321.967793,95.523 L317.935543,95.523 L317.196293,98 L314.756293,98 Z M318.492043,93.3925 L321.402793,93.3925 L319.948043,88.193 L318.492043,93.3925 Z" id="ENGINYERIA" fill="#FFFFFF" fill-rule="nonzero"></path>
    </g>
</svg>
